{"title":"Thick as Thieves 2009 DVDrip English Klam","uid":9760962,"size":1996910863,"categoryP":"video","categoryS":"movies","magnet":"?xt=urn:btih:9efe762dabeba8b81792e24f8945e137f9a02067&amp;dn=Thick+as+Thieves+2009+DVDrip+English+Klam&amp;tr=udp%3A%2F%2Ftracker.openbittorrent.com%3A80&amp;tr=udp%3A%2F%2Fopen.demonii.com%3A1337&amp;tr=udp%3A%2F%2Ftracker.coppersurfer.tk%3A6969&amp;tr=udp%3A%2F%2Fexodus.desync.com%3A6969","seeders":1,"leechers":0,"uploader":"Klambake","files":-1,"time":1394810461,"description":"With: Antonio Banderas, Morgan Freeman and Radha Mitchell\n\nEen veteraan in de misdaadwereld (Morgan Freeman) rekruteert een jonge man (Antonio Banderas) om een laatste klus te klaren. Deze klus betekent veel voor de veteraan omdat hij zijn schuld aan de Russische maffia zo kan afbetalen.\n\nA veteran thief recruits a younger crook to help him pull off one final job in order to repay his debt to the Russian mob.\n &lt;a href=&quot;\nhttp://www.imdb.com/title/tt1112782&quot; rel=&quot;nofollow&quot; target=&quot;_NEW&quot;&gt;\nhttp://www.imdb.com/title/tt1112782&lt;/a&gt;\t\n\n------------------------ Dutch Friends ------------------------\n---------------------------------------------------------------\n- Bezoek ook eens mijn vrienden op: &lt;a href=&quot; http://www.Film-Test.nl&quot; rel=&quot;nofollow&quot; target=&quot;_NEW&quot;&gt; http://www.Film-Test.nl&lt;/a&gt; --\n----- voor mijn Nederlandse Sync. ondertitels ---- en meer ----\n------- http://www.Film-Test.nl ---- voor Films en meer -------\n---------------------------------------------------------------\n\nGeneral:\n\nComplete name                            : Thick as ThievesThick as Thieves.avi\nFormat                                   : AVI\nFormat/Info                              : Audio Video Interleave\nFile size                                : 1.86 GiB\nDuration                                 : 1h 39mn\nOverall bit rate                         : 2 683 Kbps\n\nVideo:\n\nFormat                                   : MPEG-4 Visual\nFormat profile                           : Simple@L3\nFormat settings, BVOP                    : No\nFormat settings, QPel                    : No\nFormat settings, GMC                     : No warppoints\nFormat settings, Matrix                  : Default (H.263)\nCodec ID                                 : XVID\nCodec ID/Hint                            : XviD\nDuration                                 : 1h 39mn\nSource duration                          : 1h 39mn\nBit rate                                 : 2 224 Kbps\nWidth                                    : 704 pixels\nHeight                                   : 396 pixels\nDisplay aspect ratio                     : 16:9\nFrame rate                               : 25.000 fps\nColor space                              : YUV\nChroma subsampling                       : 4:2:0\nBit depth                                : 8 bits\nScan type                                : Progressive\nCompression mode                         : Lossy\nBits/(Pixel*Frame)                       : 0.319\nStream size                              : 1.54 GiB (83%)\nWriting library                          : XviD 1.1.2 (UTC 2006-11-01)\n\nAudio:\n\nFormat                                   : AC-3\nFormat/Info                              : Audio Coding 3\nMode extension                           : CM (complete main)\nFormat settings, Endianness              : Big\nCodec ID                                 : 2000\nDuration                                 : 1h 39mn\nBit rate mode                            : Constant\nBit rate                                 : 448 Kbps\nChannel(s)                               : 6 channels\nChannel positions                        : Front: L C R, Side: L R, LFE\nSampling rate                            : 48.0 KHz\nBit depth                                : 16 bits\nCompression mode                         : Lossy\nStream size                              : 318 MiB (17%)\nAlignment                                : Aligned on interleaves\nInterleave, duration                     : 32 ms (0.80 video frame)\n","torrent":{"xt":"urn:btih:9efe762dabeba8b81792e24f8945e137f9a02067","amp;dn":"Thick+as+Thieves+2009+DVDrip+English+Klam","amp;tr":["udp%3A%2F%2Ftracker.openbittorrent.com%3A80","udp%3A%2F%2Fopen.demonii.com%3A1337","udp%3A%2F%2Ftracker.coppersurfer.tk%3A6969","udp%3A%2F%2Fexodus.desync.com%3A6969"],"infoHash":"9efe762dabeba8b81792e24f8945e137f9a02067","infoHashBuffer":{"type":"Buffer","data":[158,254,118,45,171,235,168,184,23,146,226,79,137,69,225,55,249,160,32,103]},"announce":[],"urlList":[]}}